<?xml version="1.0" encoding="iso-8859-1"?>
<!-- Generator: Adobe Illustrator 17.1.0, SVG Export Plug-In . SVG Version: 6.00 Build 0)  -->
<!DOCTYPE svg PUBLIC "-//W3C//DTD SVG 1.1//EN" "http://www.w3.org/Graphics/SVG/1.1/DTD/svg11.dtd">
<svg xmlns="http://www.w3.org/2000/svg" xmlns:xlink="http://www.w3.org/1999/xlink" version="1.1" id="Capa_1" x="0px" y="0px" viewBox="0 0 203.236 203.236" style="enable-background:new 0 0 203.236 203.236;" xml:space="preserve" width="512px" height="512px">
<path d="M181.825,21.408C168.019,7.603,149.664,0,130.141,0c-19.523,0-37.878,7.603-51.684,21.408S57.05,53.568,57.05,73.091  c0,16.411,5.39,31.984,15.303,44.736l-14.058,14.058l-1.419-1.419c-1.952-1.951-5.117-1.952-7.071,0L4.751,175.52  c-6.33,6.33-6.33,16.63,0,22.961c3.066,3.066,7.144,4.755,11.48,4.755s8.414-1.689,11.48-4.755l45.053-45.053  c1.953-1.953,1.953-5.119,0-7.071l-1.419-1.419l14.058-14.058c12.751,9.912,28.325,15.302,44.736,15.302  c19.523,0,37.878-7.603,51.683-21.407c13.805-13.805,21.408-32.16,21.408-51.683C203.232,53.568,195.63,35.213,181.825,21.408z   M174.753,117.703c-11.916,11.916-27.76,18.479-44.612,18.479c-16.853,0-32.696-6.563-44.612-18.479  C73.613,105.787,67.05,89.943,67.05,73.091c0-16.853,6.563-32.696,18.479-44.612C97.446,16.563,113.289,10,130.141,10  c16.852,0,32.696,6.563,44.612,18.479c11.917,11.916,18.479,27.76,18.479,44.612C193.232,89.943,186.67,105.787,174.753,117.703z   M133.639,22.612c0.373,2.733-1.538,5.252-4.27,5.63c-1.722,0.243-41.385,6.285-41.385,44.849c0,2.761-2.239,5-5,5s-5-2.239-5-5  c0-24.815,13.724-38.439,25.237-45.498c12.181-7.469,24.278-9.188,24.787-9.258C130.745,17.961,133.265,19.877,133.639,22.612z" fill="#FFFFFF"/>
<g>
</g>
<g>
</g>
<g>
</g>
<g>
</g>
<g>
</g>
<g>
</g>
<g>
</g>
<g>
</g>
<g>
</g>
<g>
</g>
<g>
</g>
<g>
</g>
<g>
</g>
<g>
</g>
<g>
</g>
</svg>
