<?xml version="1.0" encoding="iso-8859-1"?>
<!-- Generator: Adobe Illustrator 19.0.0, SVG Export Plug-In . SVG Version: 6.00 Build 0)  -->
<svg xmlns="http://www.w3.org/2000/svg" xmlns:xlink="http://www.w3.org/1999/xlink" version="1.1" id="Layer_1" x="0px" y="0px" viewBox="0 0 64 64" style="enable-background:new 0 0 64 64;" xml:space="preserve" width="512px" height="512px">
<g>
	<g>
		<path d="M59,10h-5V4c0-2.206-1.794-4-4-4s-4,1.794-4,4v6H18V4c0-2.206-1.794-4-4-4s-4,1.794-4,4v6H5c-2.757,0-5,2.243-5,5v8v36    c0,2.757,2.243,5,5,5h54c2.757,0,5-2.243,5-5V23v-8C64,12.243,61.757,10,59,10z M48,4c0-1.103,0.897-2,2-2c1.102,0,2,0.897,2,2v6    h-4V4z M12,4c0-1.103,0.897-2,2-2c1.102,0,2,0.897,2,2v6h-4V4z M62,59c0,1.654-1.346,3-3,3H5c-1.654,0-3-1.346-3-3V24h60V59z     M62,22H2v-7c0-1.654,1.346-3,3-3h6h6h30h6h6c1.654,0,3,1.346,3,3V22z" fill="#FFFFFF"/>
	</g>
</g>
<g>
	<g>
		<path d="M13,28H7c-0.553,0-1,0.448-1,1v6c0,0.552,0.447,1,1,1h6c0.553,0,1-0.448,1-1v-6C14,28.448,13.553,28,13,28z M12,34H8v-4h4    V34z" fill="#FFFFFF"/>
	</g>
</g>
<g>
	<g>
		<path d="M35,28h-6c-0.553,0-1,0.448-1,1v6c0,0.552,0.447,1,1,1h6c0.553,0,1-0.448,1-1v-6C36,28.448,35.553,28,35,28z M34,34h-4v-4    h4V34z" fill="#FFFFFF"/>
	</g>
</g>
<g>
	<g>
		<path d="M46,28h-6c-0.553,0-1,0.448-1,1v6c0,0.552,0.447,1,1,1h6c0.553,0,1-0.448,1-1v-6C47,28.448,46.553,28,46,28z M45,34h-4v-4    h4V34z" fill="#FFFFFF"/>
	</g>
</g>
<g>
	<g>
		<path d="M57,28h-6c-0.553,0-1,0.448-1,1v6c0,0.552,0.447,1,1,1h6c0.553,0,1-0.448,1-1v-6C58,28.448,57.553,28,57,28z M56,34h-4v-4    h4V34z" fill="#FFFFFF"/>
	</g>
</g>
<g>
	<g>
		<path d="M13,39H7c-0.553,0-1,0.448-1,1v6c0,0.552,0.447,1,1,1h6c0.553,0,1-0.448,1-1v-6C14,39.448,13.553,39,13,39z M12,45H8v-4h4    V45z" fill="#FFFFFF"/>
	</g>
</g>
<g>
	<g>
		<path d="M24,39h-6c-0.553,0-1,0.448-1,1v6c0,0.552,0.447,1,1,1h6c0.553,0,1-0.448,1-1v-6C25,39.448,24.553,39,24,39z M23,45h-4v-4    h4V45z" fill="#FFFFFF"/>
	</g>
</g>
<g>
	<g>
		<path d="M35,39h-6c-0.553,0-1,0.448-1,1v6c0,0.552,0.447,1,1,1h6c0.553,0,1-0.448,1-1v-6C36,39.448,35.553,39,35,39z M34,45h-4v-4    h4V45z" fill="#FFFFFF"/>
	</g>
</g>
<g>
	<g>
		<path d="M57,39h-6c-0.553,0-1,0.448-1,1v6c0,0.552,0.447,1,1,1h6c0.553,0,1-0.448,1-1v-6C58,39.448,57.553,39,57,39z M56,45h-4v-4    h4V45z" fill="#FFFFFF"/>
	</g>
</g>
<g>
	<g>
		<path d="M24,50h-6c-0.553,0-1,0.447-1,1v6c0,0.553,0.447,1,1,1h6c0.553,0,1-0.447,1-1v-6C25,50.447,24.553,50,24,50z M23,56h-4v-4    h4V56z" fill="#FFFFFF"/>
	</g>
</g>
<g>
	<g>
		<path d="M35,50h-6c-0.553,0-1,0.447-1,1v6c0,0.553,0.447,1,1,1h6c0.553,0,1-0.447,1-1v-6C36,50.447,35.553,50,35,50z M34,56h-4v-4    h4V56z" fill="#FFFFFF"/>
	</g>
</g>
<g>
	<g>
		<path d="M46,50h-6c-0.553,0-1,0.447-1,1v6c0,0.553,0.447,1,1,1h6c0.553,0,1-0.447,1-1v-6C47,50.447,46.553,50,46,50z M45,56h-4v-4    h4V56z" fill="#FFFFFF"/>
	</g>
</g>
<g>
	<g>
		<path d="M57,50h-6c-0.553,0-1,0.447-1,1v6c0,0.553,0.447,1,1,1h6c0.553,0,1-0.447,1-1v-6C58,50.447,57.553,50,57,50z M56,56h-4v-4    h4V56z" fill="#FFFFFF"/>
	</g>
</g>
<g>
	<g>
		<polygon points="24.707,29.707 23.293,28.293 21,30.586 18.707,28.293 17.293,29.707 19.586,32 17.293,34.293 18.707,35.707     21,33.414 23.293,35.707 24.707,34.293 22.414,32   " fill="#FFFFFF"/>
	</g>
</g>
<g>
	<g>
		<polygon points="13.707,51.707 12.293,50.293 10,52.586 7.707,50.293 6.293,51.707 8.586,54 6.293,56.293 7.707,57.707 10,55.414     12.293,57.707 13.707,56.293 11.414,54   " fill="#FFFFFF"/>
	</g>
</g>
<g>
	<g>
		<polygon points="46.707,40.707 45.293,39.293 43,41.586 40.707,39.293 39.293,40.707 41.586,43 39.293,45.293 40.707,46.707     43,44.414 45.293,46.707 46.707,45.293 44.414,43   " fill="#FFFFFF"/>
	</g>
</g>
<g>
	<g>
		<rect x="54" y="18" width="2" height="2" fill="#FFFFFF"/>
	</g>
</g>
<g>
	<g>
		<rect x="58" y="18" width="2" height="2" fill="#FFFFFF"/>
	</g>
</g>
<g>
	<g>
		<rect x="50" y="18" width="2" height="2" fill="#FFFFFF"/>
	</g>
</g>
<g>
</g>
<g>
</g>
<g>
</g>
<g>
</g>
<g>
</g>
<g>
</g>
<g>
</g>
<g>
</g>
<g>
</g>
<g>
</g>
<g>
</g>
<g>
</g>
<g>
</g>
<g>
</g>
<g>
</g>
</svg>
