<?xml version="1.0" encoding="utf-8"?>
<!-- Generator: Adobe Illustrator 19.2.1, SVG Export Plug-In . SVG Version: 6.00 Build 0)  -->
<svg version="1.1" id="Capa_1" xmlns="http://www.w3.org/2000/svg" xmlns:xlink="http://www.w3.org/1999/xlink" x="0px" y="0px"
	 viewBox="0 0 512 512" style="enable-background:new 0 0 512 512;" xml:space="preserve">
<style type="text/css">
	.st0{fill:#FFFFFF;}
</style>
<path class="st0" d="M197.9,185.9c21.8,0,42.3-8.8,57.7-24.8c13.3-13.8,28.7-39.2,27.1-82.3c-1.9-49.4-40.3-74.7-77.6-78.6
	c-2.3-0.2-11.2-0.3-12.9-0.1c-37.8,3.4-77.2,28.7-79.1,78.7c-1.6,43.1,13.9,68.5,27.1,82.3C155.6,177.1,176.1,185.9,197.9,185.9z
	 M238.7,145c-10.9,11.4-25.5,17.6-40.9,17.6s-29.9-6.3-40.9-17.6c-11-11.5-17.8-27.3-20-46.4c42.2-2.3,85.9-12.4,121.3-28.2
	c0.5,3,0.9,6.1,1,9.3C260.4,107.3,253.3,129.9,238.7,145z M197.9,23.1c19.8,0.8,40,9.1,51.6,25.7c-32.7,14.7-73.3,24.3-112.8,26.5
	C140.3,40.8,169.4,24.2,197.9,23.1z M200.3,435.8c0,6.4-5.2,11.7-11.7,11.7H78.6c-3.5,0-6.8-1.4-9-4.1c-2.2-2.7-3.1-6.1-2.5-9.5
	l27.5-148.4c9.6-52.1,58.9-75.4,103.4-75.4c47.6,0,86.8,24.5,100,62.5c2.1,6.1-1.1,12.7-7.2,14.8c-6.1,2.1-12.7-1.1-14.8-7.2
	c-12-34.5-49.5-46.8-77.9-46.8c-34.8,0-73.2,17.4-80.4,56.3l-25,134.5h96.1C195.1,424.2,200.3,429.4,200.3,435.8z M207.8,424.2h95.6
	c0,0,0,0,0,0l-25-134.5c-7.2-38.9-45.6-56.3-80.4-56.3c-28.5,0-65.9,12.3-77.9,46.8c-2.1,6.1-8.8,9.3-14.8,7.2
	c-6.1-2.1-9.3-8.7-7.2-14.8c13.2-38,52.4-62.5,100-62.5c44.5,0,93.7,23.3,103.4,75.4L329,433.9c0.7,3.7-0.4,7.4-3.1,10.1
	c-2.2,2.3-5.3,3.5-8.5,3.5l-134.7,0c-6.5,0,11.5-7.7,5.3-9.6C142,424.2,180,424.2,207.8,424.2z"/>
</svg>
